<svg xmlns="http://www.w3.org/2000/svg" width="236.912" height="42"><path d="M25.01 7.105c-.83 1.461-1.592 2.982-2.357 4.264a.471.471 0 0 0-.08.318c0 .642 1.357.317 1.357.954a2.153 2.153 0 0 1 1.932-.637 2.551 2.551 0 0 0 2.158-.635 1.353 1.353 0 0 1 .791-.17 1.863 1.863 0 0 1 1.521.724 3.753 3.753 0 0 1 1.127 2.168 1.719 1.719 0 0 1-.324.877c-1.76 1.918-6 .881-8.241 2.8 1.684 2.886 5.194 4.405 6.481 7.366 0 .083.234.557.234.644 0 .638-.072 2.319-.8 2.557a2.237 2.237 0 0 1-1.52.561 1.374 1.374 0 0 1-.554-.079c-1.366-1.039-5.125-5.847-6.406-7.446a1.952 1.952 0 0 0-1.435-.718 1.124 1.124 0 0 0-1.124.965 12.451 12.451 0 0 1-.792 3.361c-.329.711-.654 1.355-.964 2.074-.966 2.4-1.522 5.124-3.849 6.652a2.666 2.666 0 0 1-1.282.392c-2.39 0-.96-2.482-2.875-2.161.8-3.84 4.483-6.481 4.4-10.643v-.4c-.159 0-.4-.072-.557-.072-2.717 0-5.281 2.559-8.007 2.559a3.914 3.914 0 0 1-2.727-1.206c-.311-.322-1.113-.64-1.113-1.037a3.67 3.67 0 0 1 2.394-3.054 18.572 18.572 0 0 1 3.051-.549c2.8-.644 5.367-2.006 8.237-2.563-.8-3.442-6.4-6.162-6.4-8.083 0-1.2 2.159-2 3.2-2a2.64 2.64 0 0 1 1.364.32c1.835 1.355 2 5.515 4.88 5.515a1.287 1.287 0 0 0 .565-.074c2-2.4 3.039-5.362 4.718-7.919A10.757 10.757 0 0 1 23.694.648a1.884 1.884 0 0 1 1.68-.644c2.561 0 1.129 2.245 2.4 3.2a18.537 18.537 0 0 0-2.765 3.907" fill="#009dea"/><path d="M42.425 6.657h2.7l6.287 18.318 6.033-18.38h2.042l6.032 18.381 6.285-18.318h2.608L66.557 28.81h-2.105l-6.033-17.848-6.064 17.847h-2.074zm42.76 0h15.9v2.229H87.673v7.573h12v2.231h-12v7.729h13.573v2.231H85.185zm27.341 0h9.346a9.98 9.98 0 0 1 3.339.517 6.553 6.553 0 0 1 2.4 1.428 4.9 4.9 0 0 1 1.412 3.513v.062a5.622 5.622 0 0 1-.3 1.9 4.807 4.807 0 0 1-.8 1.443 5.5 5.5 0 0 1-1.113 1.035 7.233 7.233 0 0 1-1.269.706 9.7 9.7 0 0 1 1.835.74 6.172 6.172 0 0 1 1.49 1.086 4.8 4.8 0 0 1 1 1.495 4.979 4.979 0 0 1 .377 2v.062a5.558 5.558 0 0 1-.564 2.535 5.282 5.282 0 0 1-1.615 1.889 7.727 7.727 0 0 1-2.525 1.18 12.164 12.164 0 0 1-3.262.409h-9.751zm8.97 9.772a6.186 6.186 0 0 0 3.649-.986 3.348 3.348 0 0 0 1.4-2.926v-.062a3.117 3.117 0 0 0-1.254-2.6 5.788 5.788 0 0 0-3.6-.971h-6.674v7.542zm.878 9.991a6.649 6.649 0 0 0 3.95-1.037 3.36 3.36 0 0 0 1.442-2.891v-.062a3.161 3.161 0 0 0-1.473-2.781 7.849 7.849 0 0 0-4.357-.989h-6.926v7.76zm18.873-19.763h4.839v21.995h-4.839zm16.62 0h8.578a13 13 0 0 1 4.729.833 11.16 11.16 0 0 1 3.708 2.309 10.283 10.283 0 0 1 2.4 3.473 10.921 10.921 0 0 1 .848 4.32v.063a11.033 11.033 0 0 1-.844 4.331 10.248 10.248 0 0 1-2.4 3.488 11.353 11.353 0 0 1-3.708 2.325 12.766 12.766 0 0 1-4.729.849h-8.578zm8.578 17.629a7.487 7.487 0 0 0 2.7-.472 5.814 5.814 0 0 0 2.09-1.352 6.332 6.332 0 0 0 1.351-2.074 7 7 0 0 0 .487-2.669v-.064a7.161 7.161 0 0 0-.487-2.67 6.257 6.257 0 0 0-1.351-2.105 6 6 0 0 0-2.09-1.367 7.271 7.271 0 0 0-2.7-.486h-3.738v13.259zm22.043-17.629h16.559v4.3h-11.788v4.463h10.369v4.3h-10.369v4.618h11.94v4.3h-16.711zm34.535-.157h4.462l9.426 22.152h-5.059l-2.01-4.933h-9.3l-2.012 4.933h-4.933zm5.091 12.945l-2.922-7.136-2.923 7.132zm5.864 21.419h1.231v-4.463h1.7v-1.135h-4.639v1.135h1.7zm-6.662 0h4.262v-1.1h-3.04v-1.172h2.64v-1.1h-2.64v-1.131h3v-1.1h-4.222zm-3.577.1a3.634 3.634 0 0 0 2.392-.887v-2.431h-2.43v1.064h1.24v.8a1.962 1.962 0 0 1-1.16.336 1.678 1.678 0 0 1-1.7-1.775v-.025a1.682 1.682 0 0 1 1.608-1.744 2.058 2.058 0 0 1 1.464.568l.775-.936a3.071 3.071 0 0 0-2.2-.768 2.872 2.872 0 0 0-2.934 2.9v.016a2.8 2.8 0 0 0 2.942 2.879m-10.333-.1h4.087v-.575h-3.455v-1.96h3.055v-.575h-3.055v-1.905h3.415v-.58h-4.047zm-4.702-2.547v-2.468h1.416c.9 0 1.5.416 1.5 1.216v.016c0 .736-.609 1.232-1.537 1.232zm-.631 2.551h.631v-1.977h1.36c1.192 0 2.2-.623 2.2-1.83v-.012c0-1.1-.831-1.775-2.095-1.775h-2.1zm-3.832.087a2.206 2.206 0 0 0 2.335-2.478v-3.208h-.631v3.255c0 1.223-.656 1.848-1.687 1.848a1.651 1.651 0 0 1-1.712-1.888v-3.215h-.642v3.255a2.192 2.192 0 0 0 2.327 2.43m-6.423-.575a2.226 2.226 0 0 1-2.204-2.31v-.02a2.2 2.2 0 0 1 2.192-2.3 2.226 2.226 0 0 1 2.208 2.32v.016a2.2 2.2 0 0 1-2.192 2.3m-.016.583a2.835 2.835 0 0 0 2.862-2.895v-.024a2.855 2.855 0 1 0-5.71.017v.016a2.809 2.809 0 0 0 2.848 2.879m-7.751-2.839v-2.273h1.728c.9 0 1.432.416 1.432 1.1v.016c0 .72-.6 1.152-1.44 1.152zm-.63 2.743h.63v-2.174h1.6l1.623 2.176h.775l-1.719-2.288a1.637 1.637 0 0 0 1.519-1.631v-.016a1.55 1.55 0 0 0-.431-1.1 2.209 2.209 0 0 0-1.592-.559h-2.407zm-3.672.1a3.386 3.386 0 0 0 2.247-.856v-2.233h-2.311v.567h1.7v1.393a2.64 2.64 0 0 1-1.616.56 2.164 2.164 0 0 1-2.216-2.327v-.02a2.189 2.189 0 0 1 2.129-2.3 2.382 2.382 0 0 1 1.7.64l.408-.48a2.952 2.952 0 0 0-2.088-.743 2.808 2.808 0 0 0-2.807 2.9v.016a2.744 2.744 0 0 0 2.847 2.879m-8.341-7.203h.727V42h-.727z" fill="#49545d"/></svg>